# WaveFront *.obj file (generated by Autodesk ATF)

mtllib Knee_v2.mtl

g Sólido1

v -24.000001 -264.500008 -40.000000
v -24.000001 -264.500008 0.000000
v -24.000001 0.000000 -40.000000
v -24.000001 0.000000 0.000000
v 24.000001 -264.500008 -40.000000
v 24.000001 -264.500008 0.000000
v 24.000001 0.000000 -40.000000
v 24.000001 0.000000 0.000000
vt 0.000000 0.000000 0.000000
vt 4.800000 0.000000 0.000000
vt 4.800000 4.000000 0.000000
vt 0.000000 4.000000 0.000000
vt 0.000000 0.000000 0.000000
vt 26.450001 0.000000 0.000000
vt 26.450001 4.000000 0.000000
vt 0.000000 4.000000 0.000000
vt 0.000000 0.000000 0.000000
vt 4.800000 0.000000 0.000000
vt 4.800000 4.000000 0.000000
vt 0.000000 4.000000 0.000000
vt 0.000000 0.000000 0.000000
vt 26.450001 0.000000 0.000000
vt 26.450001 4.000000 0.000000
vt 0.000000 4.000000 0.000000
vt -2.400000 13.225000 0.000000
vt -2.400000 -13.225000 0.000000
vt 2.400000 -13.225000 0.000000
vt 2.400000 13.225000 0.000000
vt 2.400000 -13.225000 0.000000
vt 2.400000 13.225000 0.000000
vt -2.400000 13.225000 0.000000
vt -2.400000 -13.225000 0.000000
vn 0.000000 -0.100000 0.000000
vn 0.000000 -0.100000 0.000000
vn 0.000000 -0.100000 0.000000
vn 0.000000 -0.100000 0.000000
vn 0.100000 0.000000 0.000000
vn 0.100000 0.000000 0.000000
vn 0.100000 0.000000 0.000000
vn 0.100000 0.000000 0.000000
vn 0.000000 0.100000 0.000000
vn 0.000000 0.100000 0.000000
vn 0.000000 0.100000 0.000000
vn 0.000000 0.100000 0.000000
vn -0.100000 0.000000 0.000000
vn -0.100000 0.000000 0.000000
vn -0.100000 0.000000 0.000000
vn -0.100000 0.000000 0.000000
vn 0.000000 0.000000 0.100000
vn 0.000000 0.000000 0.100000
vn 0.000000 0.000000 0.100000
vn 0.000000 0.000000 0.100000
vn 0.000000 0.000000 -0.100000
vn 0.000000 0.000000 -0.100000
vn 0.000000 0.000000 -0.100000
vn 0.000000 0.000000 -0.100000
usemtl 191,191,191
f 6/1/1 2/2/2 5/4/4
f 5/4/4 2/2/2 1/3/3
f 8/5/5 6/6/6 7/8/8
f 7/8/8 6/6/6 5/7/7
f 4/9/9 8/10/10 3/12/12
f 3/12/12 8/10/10 7/11/11
f 2/13/13 4/14/14 1/16/16
f 1/16/16 4/14/14 3/15/15
f 2/18/18 6/19/19 4/17/17
f 4/17/17 6/19/19 8/20/20
f 3/22/22 7/23/23 1/21/21
f 1/21/21 7/23/23 5/24/24

# 8 vertices
# 24 texture params
# 24 normals
# 12 facets

# 1 groups
